<?xml version="1.0" standalone="no"?>
<!DOCTYPE svg PUBLIC "-//W3C//DTD SVG 20010904//EN"
 "http://www.w3.org/TR/2001/REC-SVG-20010904/DTD/svg10.dtd">
<svg version="1.0" xmlns="http://www.w3.org/2000/svg"
 width="1024.000000pt" height="1024.000000pt" viewBox="0 0 1024.000000 1024.000000"
 preserveAspectRatio="xMidYMid meet">

<g transform="translate(0.000000,1024.000000) scale(0.100000,-0.100000)"
fill="#000000" stroke="none">
<path d="M4840 8524 c-691 -64 -1322 -317 -1865 -750 -141 -113 -396 -368
-509 -509 -402 -504 -641 -1063 -733 -1710 -26 -186 -26 -684 0 -870 91 -646
333 -1210 734 -1710 167 -209 447 -474 664 -627 465 -329 942 -520 1519 -610
199 -30 703 -33 905 -5 651 92 1207 332 1720 741 133 107 389 364 499 501 336
421 573 913 680 1415 61 282 70 380 70 730 0 288 -2 341 -22 470 -88 558 -259
1001 -563 1450 -219 324 -528 639 -849 866 -368 259 -799 451 -1220 544 -270
59 -387 71 -700 75 -157 1 -305 1 -330 -1z m465 -425 c1022 -69 1903 -620
2414 -1511 441 -768 508 -1724 180 -2558 -330 -841 -1047 -1505 -1902 -1764
-599 -181 -1232 -174 -1816 20 -1013 338 -1775 1198 -1986 2239 -55 272 -74
639 -46 895 55 502 212 939 486 1350 516 776 1361 1267 2287 1329 167 12 218
12 383 0z"/>
<path d="M3795 7475 l-150 -144 61 -63 c103 -106 1078 -1142 1092 -1160 11
-14 -7 -33 -140 -154 -84 -76 -168 -151 -186 -168 l-33 -30 -624 624 -625 625
-152 -153 -153 -152 167 -167 168 -168 -20 -30 c-169 -250 -301 -619 -340
-950 -22 -178 -13 -530 16 -626 3 -13 -44 -47 -193 -139 -109 -67 -199 -124
-201 -125 -2 -2 208 -344 222 -362 1 -1 364 224 807 501 442 277 806 502 808
500 2 -1 32 -81 66 -176 59 -162 62 -174 47 -189 -9 -9 -357 -263 -772 -564
-415 -302 -758 -551 -763 -555 -6 -5 201 -301 236 -337 9 -9 47 14 162 98 83
61 158 115 168 120 15 8 34 -4 110 -73 124 -113 176 -154 282 -225 169 -114
374 -215 547 -270 l87 -28 1 -257 0 -258 215 0 215 0 0 1035 0 1035 200 0 200
0 0 -1035 0 -1035 215 0 215 0 0 258 0 258 45 12 c72 19 222 80 337 138 198
98 343 198 514 353 53 47 102 90 108 95 8 6 67 -32 177 -112 153 -112 165
-119 180 -104 39 40 238 327 232 333 -5 3 -348 253 -763 554 -415 301 -763
555 -772 564 -15 15 -12 28 47 189 34 95 64 174 66 176 2 2 366 -223 809 -500
442 -277 805 -502 806 -501 41 55 222 362 216 366 -5 3 -96 60 -201 125 -140
88 -190 124 -187 135 28 95 37 450 16 626 -39 331 -171 700 -340 950 l-20 30
168 168 167 167 -153 152 -152 153 -625 -625 -624 -624 -33 30 c-18 17 -102
92 -185 168 -84 76 -153 140 -153 142 0 4 960 1023 1104 1172 l61 63 -150 144
c-82 79 -153 144 -156 145 -4 0 -46 -42 -95 -92 -49 -51 -130 -135 -180 -187
l-91 -93 -74 25 c-112 38 -212 64 -344 89 -106 20 -151 23 -385 23 -211 0
-284 -4 -360 -18 -123 -23 -265 -59 -360 -91 -41 -14 -78 -26 -81 -26 -4 0
-85 82 -180 183 -96 100 -178 183 -184 184 -5 1 -77 -62 -160 -142z m1515
-520 c84 -8 280 -46 280 -55 0 -9 -149 -168 -352 -377 l-119 -122 -83 87
c-231 242 -384 407 -380 413 7 12 230 50 337 58 97 8 195 6 317 -4z m-1230
-1455 c0 -3 -87 -59 -193 -124 -264 -164 -557 -346 -586 -365 l-24 -15 5 185
c6 208 27 333 84 508 32 99 115 286 151 340 l15 24 274 -274 c151 -151 274
-276 274 -279z m2691 439 c59 -119 83 -177 115 -284 57 -187 87 -417 75 -572
l-6 -81 -330 206 c-182 114 -362 226 -400 250 l-68 43 273 274 c151 151 278
272 282 269 5 -3 31 -50 59 -105z m-1523 -263 c246 -218 277 -247 277 -265 0
-10 5 -24 11 -32 9 -11 -8 -66 -70 -237 l-81 -222 -264 2 -264 3 -79 215 c-43
118 -78 219 -78 226 0 7 6 14 14 17 9 4 12 14 9 25 -4 15 38 58 189 195 106
97 199 176 206 177 7 0 65 -47 130 -104z m-758 -1847 l0 -440 -22 6 c-66 20
-266 125 -363 189 -103 69 -265 201 -265 215 1 6 639 471 646 471 2 0 4 -198
4 -441z m1480 287 c107 -78 248 -179 313 -226 64 -46 116 -89 114 -94 -7 -20
-159 -145 -250 -206 -84 -56 -321 -179 -374 -195 l-23 -6 0 441 c0 350 3 440
13 434 6 -4 100 -71 207 -148z"/>
</g>
</svg>
